# Blender v2.79 (sub 0) OBJ File: 'Calles.blend'
# www.blender.org
mtllib Calles9.mtl
o Cube.000_Cube.784
v -2.861406 0.486960 2.861405
v -2.861406 -0.486960 2.861406
v -2.861406 0.486960 -2.861406
v -2.861406 -0.486960 -2.861405
v 2.861406 0.486960 2.861405
v 2.861406 -0.486960 2.861406
v 2.861406 0.486960 -2.861406
v 2.861406 -0.486960 -2.861405
v -2.906523 0.655883 -1.596277
v -2.906523 -0.656078 -1.596277
v -2.906523 0.655883 -2.890453
v -2.906523 -0.656078 -2.890454
v -1.601798 0.655883 -1.596277
v -1.601798 -0.656078 -1.596277
v -1.601798 0.655883 -2.890453
v -1.601798 -0.656078 -2.890454
v 1.628253 0.655883 -1.596277
v 1.628253 -0.656078 -1.596277
v 1.628253 0.655883 -2.890453
v 1.628253 -0.656078 -2.890454
v 2.921564 0.655883 -1.596277
v 2.921564 -0.656078 -1.596277
v 2.921564 0.655883 -2.890453
v 2.921564 -0.656078 -2.890454
v -2.906073 0.655980 2.924357
v -2.906073 -0.655981 2.924357
v -2.906073 0.655980 1.630180
v -2.906073 -0.655981 1.630180
v -1.601348 0.655980 2.924357
v -1.601348 -0.655981 2.924357
v -1.601348 0.655980 1.630180
v -1.601348 -0.655981 1.630180
v 1.628703 0.655980 2.924357
v 1.628703 -0.655981 2.924357
v 1.628703 0.655980 1.630180
v 1.628703 -0.655981 1.630180
v 2.922015 0.655980 2.924357
v 2.922015 -0.655981 2.924357
v 2.922015 0.655980 1.630180
v 2.922015 -0.655981 1.630180
vt 0.968258 0.759565
vt 0.968258 0.759566
vt 0.968258 0.759566
vt 0.968258 0.759565
vt 0.968258 0.759565
vt 0.968258 0.759565
vt 0.968258 0.759566
vt 0.968258 0.759566
vt 0.906628 0.450633
vt 0.906628 0.450633
vt 0.906628 0.450633
vt 0.906628 0.450633
vt 0.906628 0.450633
vt 0.906628 0.450633
vt 0.906628 0.450633
vt 0.906628 0.450633
vt 0.906628 0.450632
vt 0.906628 0.450632
vt 0.906628 0.450633
vt 0.906628 0.450633
vt 0.906628 0.450633
vt 0.906628 0.450632
vt 0.906628 0.450633
vt 0.906628 0.450633
vt 0.906628 0.450632
vt 0.906628 0.450632
vt 0.906628 0.450633
vt 0.906628 0.450633
vt 0.906628 0.450633
vt 0.906628 0.450633
vt 0.906628 0.450633
vt 0.906628 0.450632
vt 0.906628 0.450632
vt 0.906628 0.450632
vt 0.906628 0.450633
vt 0.906628 0.450633
vt 0.906628 0.450632
vt 0.906628 0.450633
vt 0.906628 0.450633
vt 0.906628 0.450632
vn -1.0000 0.0000 0.0000
vn 0.0000 -0.0000 -1.0000
vn 1.0000 0.0000 0.0000
vn 0.0000 0.0000 1.0000
vn 0.0000 1.0000 0.0000
vn 0.0000 -1.0000 0.0000
usemtl None
s off
f 1/1/1 3/2/1 4/3/1 2/4/1
f 3/2/2 7/5/2 8/6/2 4/3/2
f 7/5/3 5/7/3 6/8/3 8/6/3
f 5/7/4 1/1/4 2/4/4 6/8/4
f 3/2/5 1/1/5 5/7/5 7/5/5
f 8/6/6 6/8/6 2/4/6 4/3/6
f 9/9/1 11/10/1 12/11/1 10/12/1
f 11/10/2 15/13/2 16/14/2 12/11/2
f 15/13/3 13/15/3 14/16/3 16/14/3
f 13/15/4 9/9/4 10/12/4 14/16/4
f 11/10/5 9/9/5 13/15/5 15/13/5
f 16/14/6 14/16/6 10/12/6 12/11/6
f 17/17/1 19/18/1 20/19/1 18/20/1
f 19/18/2 23/21/2 24/22/2 20/19/2
f 23/21/3 21/23/3 22/24/3 24/22/3
f 21/23/4 17/17/4 18/20/4 22/24/4
f 19/18/5 17/17/5 21/23/5 23/21/5
f 24/22/6 22/24/6 18/20/6 20/19/6
f 25/25/1 27/26/1 28/27/1 26/28/1
f 27/26/2 31/29/2 32/30/2 28/27/2
f 31/29/3 29/31/3 30/32/3 32/30/3
f 29/31/4 25/25/4 26/28/4 30/32/4
f 27/26/5 25/25/5 29/31/5 31/29/5
f 32/30/6 30/32/6 26/28/6 28/27/6
f 33/33/1 35/34/1 36/35/1 34/36/1
f 35/34/2 39/37/2 40/38/2 36/35/2
f 39/37/3 37/39/3 38/40/3 40/38/3
f 37/39/4 33/33/4 34/36/4 38/40/4
f 35/34/5 33/33/5 37/39/5 39/37/5
f 40/38/6 38/40/6 34/36/6 36/35/6
