# Blender v2.79 (sub 0) OBJ File: 'Calles.blend'
# www.blender.org
mtllib Calles13.mtl
o Cube.013_Cube.796
v 2.861405 0.486232 2.861406
v 2.861405 -0.486232 2.861406
v -2.861406 0.486232 2.861405
v -2.861406 -0.486232 2.861405
v 2.861406 0.486232 -2.861405
v 2.861406 -0.486232 -2.861405
v -2.861405 0.486232 -2.861406
v -2.861405 -0.486232 -2.861406
vt 0.968312 0.763425
vt 0.968312 0.763425
vt 0.968311 0.763425
vt 0.968311 0.763425
vt 0.968311 0.763425
vt 0.968311 0.763425
vt 0.968311 0.763425
vt 0.968311 0.763425
vn -0.0000 0.0000 1.0000
vn -1.0000 0.0000 -0.0000
vn 0.0000 -0.0000 -1.0000
vn 1.0000 0.0000 0.0000
vn -0.0000 1.0000 0.0000
vn 0.0000 -1.0000 -0.0000
usemtl None
s off
f 1/1/1 3/2/1 4/3/1 2/4/1
f 3/2/2 7/5/2 8/6/2 4/3/2
f 7/5/3 5/7/3 6/8/3 8/6/3
f 5/7/4 1/1/4 2/4/4 6/8/4
f 3/2/5 1/1/5 5/7/5 7/5/5
f 8/6/6 6/8/6 2/4/6 4/3/6
