# Blender v2.79 (sub 0) OBJ File: 'Calles.blend'
# www.blender.org
mtllib Calles8.mtl
o Cube.001_Cube.785
v -2.861406 0.486960 2.861405
v -2.861406 -0.486960 2.861406
v -2.861406 0.486960 -2.861406
v -2.861406 -0.486960 -2.861405
v 2.861406 0.486960 2.861405
v 2.861406 -0.486960 2.861406
v 2.861406 0.486960 -2.861406
v 2.861406 -0.486960 -2.861405
v -2.906071 0.655981 2.924362
v -2.906071 -0.655980 2.924362
v -2.906071 0.655981 1.630185
v -2.906071 -0.655980 1.630185
v -1.601346 0.655981 2.924362
v -1.601346 -0.655980 2.924362
v -1.601346 0.655981 1.630185
v -1.601346 -0.655980 1.630185
v -2.906522 0.655884 -1.596271
v -2.906522 -0.656077 -1.596271
v -2.906522 0.655884 -2.890448
v -2.906522 -0.656077 -2.890448
v -1.601797 0.655884 -1.596271
v -1.601797 -0.656077 -1.596271
v -1.601797 0.655884 -2.890448
v -1.601797 -0.656077 -2.890448
v 2.914099 0.655981 2.895314
v 2.914099 -0.655980 2.895314
v 1.619922 0.655981 2.895314
v 1.619922 -0.655980 2.895314
v 2.914099 0.655981 -2.918542
v 2.914099 -0.655980 -2.918542
v 1.619922 0.655981 -2.918542
v 1.619922 -0.655980 -2.918542
v 1.619922 0.581555 -0.011614
v 1.619922 -0.655980 -0.011614
v 2.914099 0.581555 -0.011614
v 2.914099 -0.655980 -0.011614
v 1.619922 0.655981 0.034019
v 2.914099 -0.655980 0.034020
v 1.619922 -0.655980 0.034019
v 2.914099 0.655981 0.034019
v 1.619922 -0.655980 -0.057247
v 2.914099 0.655981 -0.057247
v 1.619922 0.655981 -0.057247
v 2.914099 -0.655980 -0.057247
vt 0.967437 0.759238
vt 0.967437 0.759238
vt 0.967437 0.759238
vt 0.967437 0.759238
vt 0.967437 0.759238
vt 0.967437 0.759238
vt 0.967437 0.759238
vt 0.967437 0.759238
vt 0.906240 0.450945
vt 0.906240 0.450945
vt 0.906240 0.450945
vt 0.906240 0.450945
vt 0.906240 0.450945
vt 0.906240 0.450945
vt 0.906239 0.450945
vt 0.906239 0.450946
vt 0.906239 0.450946
vt 0.906239 0.450946
vt 0.906239 0.450945
vt 0.906239 0.450945
vt 0.906239 0.450945
vt 0.906239 0.450945
vt 0.906239 0.450945
vt 0.906239 0.450946
vt 0.906240 0.450945
vt 0.906240 0.450945
vt 0.906240 0.450945
vt 0.906240 0.450945
vt 0.906239 0.450945
vt 0.906239 0.450945
vt 0.906239 0.450945
vt 0.906239 0.450945
vt 0.906239 0.450945
vt 0.906239 0.450946
vt 0.906239 0.450945
vt 0.906239 0.450945
vt 0.906239 0.450945
vt 0.906239 0.450945
vt 0.906239 0.450945
vt 0.906239 0.450945
vt 0.906239 0.450945
vt 0.906239 0.450945
vt 0.906239 0.450945
vt 0.906239 0.450945
vn -1.0000 0.0000 0.0000
vn 0.0000 -0.0000 -1.0000
vn 1.0000 0.0000 0.0000
vn 0.0000 0.0000 1.0000
vn 0.0000 1.0000 0.0000
vn 0.0000 -1.0000 0.0000
vn 0.0000 0.5227 -0.8525
vn -0.0000 0.5227 0.8525
usemtl None
s off
f 1/1/1 3/2/1 4/3/1 2/4/1
f 3/2/2 7/5/2 8/6/2 4/3/2
f 7/5/3 5/7/3 6/8/3 8/6/3
f 5/7/4 1/1/4 2/4/4 6/8/4
f 3/2/5 1/1/5 5/7/5 7/5/5
f 8/6/6 6/8/6 2/4/6 4/3/6
f 9/9/1 11/10/1 12/11/1 10/12/1
f 11/10/2 15/13/2 16/14/2 12/11/2
f 15/13/3 13/15/3 14/16/3 16/14/3
f 13/15/4 9/9/4 10/12/4 14/16/4
f 11/10/5 9/9/5 13/15/5 15/13/5
f 16/14/6 14/16/6 10/12/6 12/11/6
f 17/17/1 19/18/1 20/19/1 18/20/1
f 19/18/2 23/21/2 24/22/2 20/19/2
f 23/21/3 21/23/3 22/24/3 24/22/3
f 21/23/4 17/17/4 18/20/4 22/24/4
f 19/18/5 17/17/5 21/23/5 23/21/5
f 24/22/6 22/24/6 18/20/6 20/19/6
f 25/25/4 27/26/4 28/27/4 26/28/4
f 43/29/1 31/30/1 32/31/1 41/32/1
f 31/30/2 29/33/2 30/34/2 32/31/2
f 40/35/3 25/25/3 26/28/3 38/36/3
f 43/29/5 42/37/5 29/33/5 31/30/5
f 39/38/6 38/36/6 26/28/6 28/27/6
f 41/32/6 44/39/6 36/40/6 34/41/6
f 37/42/7 40/35/7 35/43/7 33/44/7
f 42/37/3 35/43/3 36/40/3 44/39/3
f 37/42/1 33/44/1 34/41/1 39/38/1
f 27/26/1 37/42/1 39/38/1 28/27/1
f 27/26/5 25/25/5 40/35/5 37/42/5
f 34/41/6 36/40/6 38/36/6 39/38/6
f 35/43/3 40/35/3 38/36/3 36/40/3
f 29/33/3 42/37/3 44/39/3 30/34/3
f 32/31/6 30/34/6 44/39/6 41/32/6
f 33/44/8 35/43/8 42/37/8 43/29/8
f 33/44/1 43/29/1 41/32/1 34/41/1
