# Blender v2.79 (sub 0) OBJ File: 'Calles.blend'
# www.blender.org
mtllib Calles16.mtl
o Cube.029_Cube.804
v 2.909876 0.225796 2.906927
v 2.909876 -0.225796 2.906928
v 1.615699 0.225796 2.906927
v 1.615699 -0.225796 2.906927
v 2.909876 0.225796 -2.906927
v 2.909876 -0.225796 -2.906927
v 1.615699 0.225796 -2.906927
v 1.615699 -0.225796 -2.906927
v 1.615699 0.200177 0.000000
v 1.615699 -0.225796 0.000000
v 2.909876 0.200177 0.000000
v 2.909876 -0.225796 0.000000
v 1.615699 0.225796 0.045634
v 2.909876 -0.225796 0.045634
v 1.615699 -0.225796 0.045634
v 2.909876 0.225796 0.045634
v 1.615699 -0.225796 -0.045633
v 2.909876 0.225796 -0.045633
v 1.615699 0.225796 -0.045633
v 2.909876 -0.225796 -0.045633
v 2.847013 0.167617 2.861406
v 2.847013 -0.167617 2.861406
v -2.875798 0.167617 2.861405
v -2.875798 -0.167617 2.861405
v 2.847014 0.167617 -2.861405
v 2.847014 -0.167617 -2.861405
v -2.875798 0.167617 -2.861406
v -2.875798 -0.167617 -2.861406
v -1.609943 0.225796 2.906927
v -1.609943 -0.225796 2.906927
v -2.904120 0.225796 2.906927
v -2.904120 -0.225796 2.906927
v -1.609942 0.225796 -2.906927
v -1.609942 -0.225796 -2.906927
v -2.904119 0.225796 -2.906928
v -2.904119 -0.225796 -2.906927
v -2.904119 0.200177 -0.000000
v -2.904119 -0.225796 -0.000000
v -1.609942 0.200177 -0.000000
v -1.609942 -0.225796 -0.000000
v -2.904119 0.225796 0.045633
v -1.609942 -0.225796 0.045633
v -2.904119 -0.225796 0.045633
v -1.609942 0.225796 0.045633
v -2.904119 -0.225796 -0.045634
v -1.609942 0.225796 -0.045634
v -2.904119 0.225796 -0.045634
v -1.609942 -0.225796 -0.045634
vt 0.905901 0.445367
vt 0.905901 0.445367
vt 0.905901 0.445369
vt 0.905901 0.445369
vt 0.905905 0.445366
vt 0.905905 0.445367
vt 0.905907 0.445367
vt 0.905907 0.445366
vt 0.905901 0.445367
vt 0.905901 0.445365
vt 0.905904 0.445365
vt 0.905904 0.445367
vt 0.905903 0.445363
vt 0.905901 0.445365
vt 0.905902 0.445365
vt 0.905902 0.445365
vt 0.905901 0.445365
vt 0.905903 0.445363
vt 0.905903 0.445364
vt 0.905903 0.445363
vt 0.969045 0.762977
vt 0.969045 0.762979
vt 0.969047 0.762979
vt 0.969047 0.762977
vt 0.969044 0.762977
vt 0.969043 0.762977
vt 0.969047 0.762979
vt 0.969048 0.762979
vt 0.905902 0.445365
vt 0.905901 0.445365
vt 0.905901 0.445367
vt 0.905902 0.445367
vt 0.905904 0.445368
vt 0.905904 0.445369
vt 0.905905 0.445369
vt 0.905905 0.445368
vt 0.905901 0.445365
vt 0.905901 0.445364
vt 0.905906 0.445367
vt 0.905906 0.445369
vt 0.905905 0.445364
vt 0.905901 0.445368
vt 0.905902 0.445368
vt 0.905902 0.445368
vt 0.905901 0.445368
vt 0.905903 0.445363
vt 0.905903 0.445364
vt 0.905903 0.445363
vn -0.0000 0.0000 1.0000
vn -1.0000 0.0000 0.0000
vn 0.0000 -0.0000 -1.0000
vn 1.0000 0.0000 0.0000
vn 0.0000 1.0000 -0.0000
vn -0.0000 -1.0000 0.0000
vn 0.0000 0.8720 -0.4895
vn -0.0000 0.8720 0.4895
usemtl None
s off
f 1/1/1 3/2/1 4/3/1 2/4/1
f 19/5/2 7/6/2 8/7/2 17/8/2
f 7/6/3 5/9/3 6/10/3 8/7/3
f 16/11/4 1/1/4 2/4/4 14/12/4
f 19/5/5 18/13/5 5/9/5 7/6/5
f 15/14/6 14/12/6 2/4/6 4/3/6
f 17/8/6 20/15/6 12/16/6 10/17/6
f 13/18/7 16/11/7 11/19/7 9/20/7
f 18/13/4 11/19/4 12/16/4 20/15/4
f 13/18/2 9/20/2 10/17/2 15/14/2
f 3/2/2 13/18/2 15/14/2 4/3/2
f 3/2/5 1/1/5 16/11/5 13/18/5
f 10/17/6 12/16/6 14/12/6 15/14/6
f 11/19/4 16/11/4 14/12/4 12/16/4
f 5/9/4 18/13/4 20/15/4 6/10/4
f 8/7/6 6/10/6 20/15/6 17/8/6
f 9/20/8 11/19/8 18/13/8 19/5/8
f 9/20/2 19/5/2 17/8/2 10/17/2
f 21/21/1 23/22/1 24/23/1 22/24/1
f 23/22/2 27/25/2 28/26/2 24/23/2
f 27/25/3 25/27/3 26/28/3 28/26/3
f 25/27/4 21/21/4 22/24/4 26/28/4
f 23/22/5 21/21/5 25/27/5 27/25/5
f 28/26/6 26/28/6 22/24/6 24/23/6
f 29/29/1 31/30/1 32/31/1 30/32/1
f 47/33/2 35/34/2 36/35/2 45/36/2
f 35/34/3 33/37/3 34/38/3 36/35/3
f 44/39/4 29/29/4 30/32/4 42/40/4
f 47/33/5 46/41/5 33/37/5 35/34/5
f 43/42/6 42/40/6 30/32/6 32/31/6
f 45/36/6 48/43/6 40/44/6 38/45/6
f 41/46/7 44/39/7 39/47/7 37/48/7
f 46/41/4 39/47/4 40/44/4 48/43/4
f 41/46/2 37/48/2 38/45/2 43/42/2
f 31/30/2 41/46/2 43/42/2 32/31/2
f 31/30/5 29/29/5 44/39/5 41/46/5
f 38/45/6 40/44/6 42/40/6 43/42/6
f 39/47/4 44/39/4 42/40/4 40/44/4
f 33/37/4 46/41/4 48/43/4 34/38/4
f 36/35/6 34/38/6 48/43/6 45/36/6
f 37/48/8 39/47/8 46/41/8 47/33/8
f 37/48/2 47/33/2 45/36/2 38/45/2
