# Blender v2.79 (sub 0) OBJ File: 'Calles.blend'
# www.blender.org
mtllib Calles4.mtl
o Cube.023_Cube.800
v 2.924269 1.385050 2.638352
v 2.924269 0.119687 2.977406
v 1.630092 1.385050 2.638352
v 1.630092 0.119687 2.977406
v 2.924270 -0.119686 -2.977400
v 2.924270 -1.385049 -2.638346
v 1.630093 -0.119686 -2.977400
v 1.630093 -1.385049 -2.638346
v 1.630092 0.560899 -0.150290
v 1.630092 -0.632681 0.169529
v 2.924269 0.560899 -0.150289
v 2.924269 -0.632681 0.169530
v 1.630092 0.644493 -0.125445
v 2.924269 -0.620870 0.213608
v 1.630092 -0.620870 0.213608
v 2.924269 0.644493 -0.125445
v 1.630093 -0.644492 0.125451
v 2.924269 0.620871 -0.213602
v 1.630093 0.620871 -0.213602
v 2.924269 -0.644492 0.125451
v -1.595549 1.385050 2.638352
v -1.595549 0.119687 2.977405
v -2.889727 1.385050 2.638352
v -2.889727 0.119687 2.977405
v -1.595549 -0.119686 -2.977400
v -1.595549 -1.385049 -2.638347
v -2.889726 -0.119686 -2.977400
v -2.889726 -1.385049 -2.638347
v -2.889726 0.560899 -0.150290
v -2.889726 -0.632681 0.169529
v -1.595549 0.560899 -0.150290
v -1.595549 -0.632681 0.169529
v -2.889726 0.644493 -0.125446
v -1.595549 -0.620870 0.213608
v -2.889726 -0.620870 0.213607
v -1.595549 0.644493 -0.125445
v -2.889726 -0.644492 0.125450
v -1.595549 0.620871 -0.213603
v -2.889726 0.620871 -0.213603
v -1.595549 -0.644492 0.125450
v -1.595549 1.385050 2.638352
v -1.595549 0.119687 2.977405
v -2.889727 1.385050 2.638352
v -2.889727 0.119687 2.977405
v -1.595549 -0.119686 -2.977400
v -1.595549 -1.385049 -2.638347
v -2.889726 -0.119686 -2.977400
v -2.889726 -1.385049 -2.638347
v -2.889726 0.560899 -0.150290
v -2.889726 -0.632681 0.169529
v -1.595549 0.560899 -0.150290
v -1.595549 -0.632681 0.169529
v -2.889726 0.644493 -0.125446
v -1.595549 -0.620870 0.213608
v -2.889726 -0.620870 0.213607
v -1.595549 0.644493 -0.125445
v -2.889726 -0.644492 0.125450
v -1.595549 0.620871 -0.213603
v -2.889726 0.620871 -0.213603
v -1.595549 -0.644492 0.125450
v 2.924269 1.385050 2.638352
v 2.924269 0.119687 2.977406
v 1.630092 1.385050 2.638352
v 1.630092 0.119687 2.977406
v 2.924270 -0.119686 -2.977400
v 2.924270 -1.385049 -2.638346
v 1.630093 -0.119686 -2.977400
v 1.630093 -1.385049 -2.638346
v 1.630092 0.560899 -0.150290
v 1.630092 -0.632681 0.169529
v 2.924269 0.560899 -0.150289
v 2.924269 -0.632681 0.169530
v 1.630092 0.644493 -0.125445
v 2.924269 -0.620870 0.213608
v 1.630092 -0.620870 0.213608
v 2.924269 0.644493 -0.125445
v 1.630093 -0.644492 0.125451
v 2.924269 0.620871 -0.213602
v 1.630093 0.620871 -0.213602
v 2.924269 -0.644492 0.125451
v 2.861407 1.210251 2.638062
v 2.861407 0.270923 2.889754
v -2.861404 1.210251 2.638061
v -2.861404 0.270923 2.889754
v 2.861407 -0.270921 -2.889748
v 2.861407 -1.210250 -2.638056
v -2.861404 -0.270922 -2.889749
v -2.861404 -1.210250 -2.638057
vt 0.906354 0.448226
vt 0.906354 0.448226
vt 0.906354 0.448225
vt 0.906354 0.448225
vt 0.906352 0.448225
vt 0.906353 0.448225
vt 0.906353 0.448225
vt 0.906352 0.448225
vt 0.906354 0.448226
vt 0.906354 0.448225
vt 0.906351 0.448225
vt 0.906351 0.448225
vt 0.906354 0.448226
vt 0.906353 0.448228
vt 0.906352 0.448228
vt 0.906352 0.448228
vt 0.906353 0.448228
vt 0.906353 0.448228
vt 0.906353 0.448228
vt 0.906353 0.448228
vt 0.906354 0.448228
vt 0.906354 0.448228
vt 0.906354 0.448227
vt 0.906354 0.448227
vt 0.906352 0.448226
vt 0.906353 0.448226
vt 0.906353 0.448225
vt 0.906352 0.448225
vt 0.906354 0.448225
vt 0.906354 0.448225
vt 0.906351 0.448226
vt 0.906351 0.448227
vt 0.906353 0.448226
vt 0.906352 0.448228
vt 0.906352 0.448228
vt 0.906352 0.448228
vt 0.906352 0.448228
vt 0.906353 0.448228
vt 0.906353 0.448228
vt 0.906353 0.448228
vt 0.906354 0.448227
vt 0.906354 0.448227
vt 0.906354 0.448226
vt 0.906354 0.448226
vt 0.906352 0.448226
vt 0.906352 0.448226
vt 0.906352 0.448225
vt 0.906352 0.448225
vt 0.906354 0.448226
vt 0.906354 0.448227
vt 0.906352 0.448226
vt 0.906352 0.448227
vt 0.906353 0.448226
vt 0.906352 0.448228
vt 0.906352 0.448228
vt 0.906352 0.448228
vt 0.906352 0.448228
vt 0.906353 0.448228
vt 0.906353 0.448228
vt 0.906353 0.448228
vt 0.906354 0.448228
vt 0.906354 0.448228
vt 0.906354 0.448227
vt 0.906354 0.448227
vt 0.906351 0.448226
vt 0.906351 0.448226
vt 0.906351 0.448225
vt 0.906351 0.448225
vt 0.906354 0.448225
vt 0.906354 0.448225
vt 0.906352 0.448225
vt 0.906352 0.448225
vt 0.906354 0.448226
vt 0.906352 0.448228
vt 0.906352 0.448228
vt 0.906352 0.448228
vt 0.906352 0.448228
vt 0.906353 0.448228
vt 0.906353 0.448228
vt 0.906353 0.448228
vt 0.969167 0.761286
vt 0.969167 0.761286
vt 0.969166 0.761286
vt 0.969166 0.761286
vt 0.969166 0.761285
vt 0.969166 0.761285
vt 0.969164 0.761288
vt 0.969165 0.761288
vn 0.0000 0.2588 0.9659
vn -1.0000 0.0000 0.0000
vn 0.0000 -0.2588 -0.9659
vn 1.0000 0.0000 0.0000
vn -0.0000 0.9659 -0.2588
vn 0.0000 -0.9659 0.2588
vn 0.0000 0.2849 -0.9586
vn -0.0000 0.7260 0.6877
usemtl None
s off
f 1/1/1 3/2/1 4/3/1 2/4/1
f 19/5/2 7/6/2 8/7/2 17/8/2
f 7/6/3 5/9/3 6/10/3 8/7/3
f 16/11/4 1/1/4 2/4/4 14/12/4
f 19/5/5 18/13/5 5/9/5 7/6/5
f 15/14/6 14/12/6 2/4/6 4/3/6
f 17/8/6 20/15/6 12/16/6 10/17/6
f 13/18/7 16/11/7 11/19/7 9/20/7
f 18/13/4 11/19/4 12/16/4 20/15/4
f 13/18/2 9/20/2 10/17/2 15/14/2
f 3/2/2 13/18/2 15/14/2 4/3/2
f 3/2/5 1/1/5 16/11/5 13/18/5
f 10/17/6 12/16/6 14/12/6 15/14/6
f 11/19/4 16/11/4 14/12/4 12/16/4
f 5/9/4 18/13/4 20/15/4 6/10/4
f 8/7/6 6/10/6 20/15/6 17/8/6
f 9/20/8 11/19/8 18/13/8 19/5/8
f 9/20/2 19/5/2 17/8/2 10/17/2
f 21/21/1 23/22/1 24/23/1 22/24/1
f 39/25/2 27/26/2 28/27/2 37/28/2
f 27/26/3 25/29/3 26/30/3 28/27/3
f 36/31/4 21/21/4 22/24/4 34/32/4
f 39/25/5 38/33/5 25/29/5 27/26/5
f 35/34/6 34/32/6 22/24/6 24/23/6
f 37/28/6 40/35/6 32/36/6 30/37/6
f 33/38/7 36/31/7 31/39/7 29/40/7
f 38/33/4 31/39/4 32/36/4 40/35/4
f 33/38/2 29/40/2 30/37/2 35/34/2
f 23/22/2 33/38/2 35/34/2 24/23/2
f 23/22/5 21/21/5 36/31/5 33/38/5
f 30/37/6 32/36/6 34/32/6 35/34/6
f 31/39/4 36/31/4 34/32/4 32/36/4
f 25/29/4 38/33/4 40/35/4 26/30/4
f 28/27/6 26/30/6 40/35/6 37/28/6
f 29/40/8 31/39/8 38/33/8 39/25/8
f 29/40/2 39/25/2 37/28/2 30/37/2
f 41/41/1 43/42/1 44/43/1 42/44/1
f 59/45/2 47/46/2 48/47/2 57/48/2
f 47/46/3 45/49/3 46/50/3 48/47/3
f 56/51/4 41/41/4 42/44/4 54/52/4
f 59/45/5 58/53/5 45/49/5 47/46/5
f 55/54/6 54/52/6 42/44/6 44/43/6
f 57/48/6 60/55/6 52/56/6 50/57/6
f 53/58/7 56/51/7 51/59/7 49/60/7
f 58/53/4 51/59/4 52/56/4 60/55/4
f 53/58/2 49/60/2 50/57/2 55/54/2
f 43/42/2 53/58/2 55/54/2 44/43/2
f 43/42/5 41/41/5 56/51/5 53/58/5
f 50/57/6 52/56/6 54/52/6 55/54/6
f 51/59/4 56/51/4 54/52/4 52/56/4
f 45/49/4 58/53/4 60/55/4 46/50/4
f 48/47/6 46/50/6 60/55/6 57/48/6
f 49/60/8 51/59/8 58/53/8 59/45/8
f 49/60/2 59/45/2 57/48/2 50/57/2
f 61/61/1 63/62/1 64/63/1 62/64/1
f 79/65/2 67/66/2 68/67/2 77/68/2
f 67/66/3 65/69/3 66/70/3 68/67/3
f 76/71/4 61/61/4 62/64/4 74/72/4
f 79/65/5 78/73/5 65/69/5 67/66/5
f 75/74/6 74/72/6 62/64/6 64/63/6
f 77/68/6 80/75/6 72/76/6 70/77/6
f 73/78/7 76/71/7 71/79/7 69/80/7
f 78/73/4 71/79/4 72/76/4 80/75/4
f 73/78/2 69/80/2 70/77/2 75/74/2
f 63/62/2 73/78/2 75/74/2 64/63/2
f 63/62/5 61/61/5 76/71/5 73/78/5
f 70/77/6 72/76/6 74/72/6 75/74/6
f 71/79/4 76/71/4 74/72/4 72/76/4
f 65/69/4 78/73/4 80/75/4 66/70/4
f 68/67/6 66/70/6 80/75/6 77/68/6
f 69/80/8 71/79/8 78/73/8 79/65/8
f 69/80/2 79/65/2 77/68/2 70/77/2
f 81/81/1 83/82/1 84/83/1 82/84/1
f 83/82/2 87/85/2 88/86/2 84/83/2
f 87/85/3 85/87/3 86/88/3 88/86/3
f 85/87/4 81/81/4 82/84/4 86/88/4
f 83/82/5 81/81/5 85/87/5 87/85/5
f 88/86/6 86/88/6 82/84/6 84/83/6
