# Blender v2.79 (sub 0) OBJ File: 'Calles.blend'
# www.blender.org
mtllib Calles2.mtl
o Cube.025_Cube.801
v -2.861406 0.167617 5.722811
v -2.861406 -0.167617 5.722812
v -2.861406 0.167617 -5.722812
v -2.861406 -0.167617 -5.722811
v 2.861406 0.167617 5.722811
v 2.861406 -0.167617 5.722812
v 2.861406 0.167617 -5.722812
v 2.861406 -0.167617 -5.722811
v -1.590549 0.225795 0.009779
v -1.590549 -0.225796 0.009779
v -2.884726 0.225795 0.009779
v -2.884726 -0.225796 0.009779
v -1.590548 0.225795 -5.804076
v -1.590548 -0.225796 -5.804077
v -2.884725 0.225795 -5.804076
v -2.884725 -0.225796 -5.804077
v -2.884726 0.200177 -2.897149
v -2.884726 -0.225796 -2.897148
v -1.590549 0.200177 -2.897149
v -1.590549 -0.225796 -2.897148
v -2.884726 0.225795 -2.851515
v -1.590549 -0.225796 -2.851515
v -2.884726 -0.225796 -2.851515
v -1.590549 0.225795 -2.851515
v -2.884726 -0.225796 -2.942782
v -1.590549 0.225795 -2.942782
v -2.884726 0.225795 -2.942782
v -1.590549 -0.225796 -2.942782
v 2.929268 0.225795 0.009778
v 2.929268 -0.225796 0.009778
v 1.635091 0.225795 0.009778
v 1.635091 -0.225796 0.009778
v 2.929268 0.225795 -5.804077
v 2.929268 -0.225796 -5.804078
v 1.635091 0.225795 -5.804077
v 1.635091 -0.225796 -5.804078
v 1.635091 0.200177 -2.897150
v 1.635091 -0.225796 -2.897149
v 2.929268 0.200177 -2.897150
v 2.929268 -0.225796 -2.897150
v 1.635091 0.225795 -2.851516
v 2.929268 -0.225796 -2.851516
v 1.635091 -0.225796 -2.851516
v 2.929268 0.225795 -2.851516
v 1.635091 -0.225796 -2.942783
v 2.929268 0.225795 -2.942783
v 1.635091 0.225795 -2.942783
v 2.929268 -0.225796 -2.942783
v -1.590549 0.225795 -0.017271
v -1.590549 -0.225796 -0.017271
v -2.884726 0.225795 -0.017271
v -2.884726 -0.225796 -0.017271
v -1.590549 0.225795 5.796585
v -1.590549 -0.225796 5.796584
v -2.884726 0.225795 5.796585
v -2.884726 -0.225796 5.796584
v -2.884726 0.200177 2.889657
v -2.884726 -0.225796 2.889657
v -1.590549 0.200177 2.889657
v -1.590549 -0.225796 2.889657
v -2.884726 0.225795 2.844023
v -1.590549 -0.225796 2.844023
v -2.884726 -0.225796 2.844023
v -1.590549 0.225795 2.844023
v -2.884726 -0.225796 2.935290
v -1.590549 0.225795 2.935290
v -2.884726 0.225795 2.935290
v -1.590549 -0.225796 2.935290
v 2.929268 0.225795 -0.017270
v 2.929268 -0.225796 -0.017270
v 1.635091 0.225795 -0.017270
v 1.635091 -0.225796 -0.017270
v 2.929268 0.225795 5.796586
v 2.929268 -0.225796 5.796585
v 1.635090 0.225795 5.796586
v 1.635090 -0.225796 5.796585
v 1.635090 0.200177 2.889658
v 1.635090 -0.225796 2.889658
v 2.929268 0.200177 2.889658
v 2.929268 -0.225796 2.889658
v 1.635090 0.225795 2.844024
v 2.929268 -0.225796 2.844025
v 1.635090 -0.225796 2.844024
v 2.929268 0.225795 2.844024
v 1.635090 -0.225796 2.935292
v 2.929268 0.225795 2.935291
v 1.635090 0.225795 2.935290
v 2.929268 -0.225796 2.935292
vt 0.969290 0.761955
vt 0.969290 0.761955
vt 0.969290 0.761955
vt 0.969290 0.761955
vt 0.969290 0.761955
vt 0.969290 0.761955
vt 0.969290 0.761955
vt 0.969290 0.761955
vt 0.905821 0.448784
vt 0.905821 0.448784
vt 0.905821 0.448784
vt 0.905821 0.448784
vt 0.905821 0.448784
vt 0.905821 0.448784
vt 0.905821 0.448784
vt 0.905821 0.448784
vt 0.905821 0.448784
vt 0.905821 0.448784
vt 0.905821 0.448784
vt 0.905821 0.448784
vt 0.905821 0.448784
vt 0.905821 0.448784
vt 0.905821 0.448784
vt 0.905821 0.448784
vt 0.905821 0.448784
vt 0.905822 0.448784
vt 0.905822 0.448784
vt 0.905822 0.448784
vt 0.905821 0.448784
vt 0.905821 0.448784
vt 0.905821 0.448784
vt 0.905821 0.448784
vt 0.905821 0.448784
vt 0.905821 0.448784
vt 0.905821 0.448784
vt 0.905821 0.448784
vt 0.905821 0.448784
vt 0.905821 0.448784
vt 0.905822 0.448784
vt 0.905822 0.448784
vt 0.905821 0.448784
vt 0.905821 0.448784
vt 0.905821 0.448784
vt 0.905821 0.448784
vt 0.905821 0.448784
vt 0.905822 0.448784
vt 0.905822 0.448784
vt 0.905822 0.448784
vt 0.905821 0.448784
vt 0.905821 0.448784
vt 0.905821 0.448784
vt 0.905821 0.448784
vt 0.905821 0.448784
vt 0.905821 0.448784
vt 0.905821 0.448784
vt 0.905821 0.448784
vt 0.905821 0.448784
vt 0.905821 0.448784
vt 0.905821 0.448784
vt 0.905821 0.448784
vt 0.905821 0.448784
vt 0.905821 0.448784
vt 0.905821 0.448784
vt 0.905821 0.448784
vt 0.905821 0.448784
vt 0.905822 0.448784
vt 0.905822 0.448784
vt 0.905822 0.448784
vt 0.905821 0.448784
vt 0.905821 0.448784
vt 0.905821 0.448784
vt 0.905821 0.448784
vt 0.905822 0.448784
vt 0.905822 0.448784
vt 0.905822 0.448784
vt 0.905822 0.448784
vt 0.905821 0.448784
vt 0.905821 0.448784
vt 0.905821 0.448784
vt 0.905821 0.448784
vt 0.905821 0.448784
vt 0.905821 0.448784
vt 0.905821 0.448784
vt 0.905821 0.448784
vt 0.905821 0.448784
vt 0.905822 0.448784
vt 0.905822 0.448784
vt 0.905822 0.448784
vn -1.0000 0.0000 0.0000
vn 0.0000 -0.0000 -1.0000
vn 1.0000 0.0000 0.0000
vn 0.0000 0.0000 1.0000
vn 0.0000 1.0000 0.0000
vn 0.0000 -1.0000 0.0000
vn 0.0000 0.8720 -0.4895
vn 0.0000 0.8720 0.4895
usemtl None
s off
f 1/1/1 3/2/1 4/3/1 2/4/1
f 3/2/2 7/5/2 8/6/2 4/3/2
f 7/5/3 5/7/3 6/8/3 8/6/3
f 5/7/4 1/1/4 2/4/4 6/8/4
f 3/2/5 1/1/5 5/7/5 7/5/5
f 8/6/6 6/8/6 2/4/6 4/3/6
f 9/9/4 11/10/4 12/11/4 10/12/4
f 27/13/1 15/14/1 16/15/1 25/16/1
f 15/14/2 13/17/2 14/18/2 16/15/2
f 24/19/3 9/9/3 10/12/3 22/20/3
f 27/13/5 26/21/5 13/17/5 15/14/5
f 23/22/6 22/20/6 10/12/6 12/11/6
f 25/16/6 28/23/6 20/24/6 18/25/6
f 21/26/7 24/19/7 19/27/7 17/28/7
f 26/21/3 19/27/3 20/24/3 28/23/3
f 21/26/1 17/28/1 18/25/1 23/22/1
f 11/10/1 21/26/1 23/22/1 12/11/1
f 11/10/5 9/9/5 24/19/5 21/26/5
f 18/25/6 20/24/6 22/20/6 23/22/6
f 19/27/3 24/19/3 22/20/3 20/24/3
f 13/17/3 26/21/3 28/23/3 14/18/3
f 16/15/6 14/18/6 28/23/6 25/16/6
f 17/28/8 19/27/8 26/21/8 27/13/8
f 17/28/1 27/13/1 25/16/1 18/25/1
f 29/29/4 31/30/4 32/31/4 30/32/4
f 47/33/1 35/34/1 36/35/1 45/36/1
f 35/34/2 33/37/2 34/38/2 36/35/2
f 44/39/3 29/29/3 30/32/3 42/40/3
f 47/33/5 46/41/5 33/37/5 35/34/5
f 43/42/6 42/40/6 30/32/6 32/31/6
f 45/36/6 48/43/6 40/44/6 38/45/6
f 41/46/7 44/39/7 39/47/7 37/48/7
f 46/41/3 39/47/3 40/44/3 48/43/3
f 41/46/1 37/48/1 38/45/1 43/42/1
f 31/30/1 41/46/1 43/42/1 32/31/1
f 31/30/5 29/29/5 44/39/5 41/46/5
f 38/45/6 40/44/6 42/40/6 43/42/6
f 39/47/3 44/39/3 42/40/3 40/44/3
f 33/37/3 46/41/3 48/43/3 34/38/3
f 36/35/6 34/38/6 48/43/6 45/36/6
f 37/48/8 39/47/8 46/41/8 47/33/8
f 37/48/1 47/33/1 45/36/1 38/45/1
f 49/49/2 50/50/2 52/51/2 51/52/2
f 67/53/1 65/54/1 56/55/1 55/56/1
f 55/56/4 56/55/4 54/57/4 53/58/4
f 64/59/3 62/60/3 50/50/3 49/49/3
f 67/53/5 55/56/5 53/58/5 66/61/5
f 63/62/6 52/51/6 50/50/6 62/60/6
f 65/54/6 58/63/6 60/64/6 68/65/6
f 61/66/8 57/67/8 59/68/8 64/59/8
f 66/61/3 68/65/3 60/64/3 59/68/3
f 61/66/1 63/62/1 58/63/1 57/67/1
f 51/52/1 52/51/1 63/62/1 61/66/1
f 51/52/5 61/66/5 64/59/5 49/49/5
f 58/63/6 63/62/6 62/60/6 60/64/6
f 59/68/3 60/64/3 62/60/3 64/59/3
f 53/58/3 54/57/3 68/65/3 66/61/3
f 56/55/6 65/54/6 68/65/6 54/57/6
f 57/67/7 67/53/7 66/61/7 59/68/7
f 57/67/1 58/63/1 65/54/1 67/53/1
f 69/69/2 70/70/2 72/71/2 71/72/2
f 87/73/1 85/74/1 76/75/1 75/76/1
f 75/76/4 76/75/4 74/77/4 73/78/4
f 84/79/3 82/80/3 70/70/3 69/69/3
f 87/73/5 75/76/5 73/78/5 86/81/5
f 83/82/6 72/71/6 70/70/6 82/80/6
f 85/74/6 78/83/6 80/84/6 88/85/6
f 81/86/8 77/87/8 79/88/8 84/79/8
f 86/81/3 88/85/3 80/84/3 79/88/3
f 81/86/1 83/82/1 78/83/1 77/87/1
f 71/72/1 72/71/1 83/82/1 81/86/1
f 71/72/5 81/86/5 84/79/5 69/69/5
f 78/83/6 83/82/6 82/80/6 80/84/6
f 79/88/3 80/84/3 82/80/3 84/79/3
f 73/78/3 74/77/3 88/85/3 86/81/3
f 76/75/6 85/74/6 88/85/6 74/77/6
f 77/87/7 87/73/7 86/81/7 79/88/7
f 77/87/1 78/83/1 85/74/1 87/73/1
