# Blender v2.79 (sub 0) OBJ File: 'Calles.blend'
# www.blender.org
mtllib Calles20.mtl
o Cube.008_Cube.792
v -3.116916 0.225795 2.923473
v -3.116916 -0.225796 2.923473
v -3.116916 0.225796 1.629296
v -3.116916 -0.225795 1.629296
v -1.812191 0.225795 2.923473
v -1.812191 -0.225796 2.923473
v -1.812191 0.225796 1.629296
v -1.812191 -0.225795 1.629296
v 2.703250 0.225796 2.894424
v 2.703250 -0.225796 2.894424
v 1.409074 0.225796 2.894424
v 1.409074 -0.225796 2.894424
v 2.703251 0.225796 -2.919430
v 2.703251 -0.225796 -2.919429
v 1.409074 0.225796 -2.919430
v 1.409074 -0.225796 -2.919429
v 1.409074 0.200177 -0.012503
v 1.409074 -0.225796 -0.012503
v 2.703251 0.200177 -0.012503
v 2.703251 -0.225796 -0.012503
v 1.409074 0.225796 0.033131
v 2.703250 -0.225796 0.033131
v 1.409074 -0.225796 0.033131
v 2.703250 0.225796 0.033131
v 1.409074 -0.225796 -0.058136
v 2.703251 0.225796 -0.058136
v 1.409074 0.225796 -0.058136
v 2.703251 -0.225796 -0.058136
v -3.117368 0.225762 -1.597157
v -3.117368 -0.225829 -1.597157
v -3.117368 0.225762 -2.891334
v -3.117368 -0.225829 -2.891333
v -1.812643 0.225762 -1.597157
v -1.812643 -0.225829 -1.597157
v -1.812643 0.225762 -2.891334
v -1.812643 -0.225829 -2.891333
v -3.072251 0.167617 2.860522
v -3.072251 -0.167617 2.860522
v -3.072251 0.167617 -2.862288
v -3.072251 -0.167617 -2.862288
v 2.650560 0.167617 2.860522
v 2.650560 -0.167617 2.860522
v 2.650560 0.167617 -2.862288
v 2.650560 -0.167617 -2.862288
vt 0.905785 0.444248
vt 0.905785 0.444248
vt 0.905785 0.444247
vt 0.905785 0.444247
vt 0.905785 0.444248
vt 0.905785 0.444248
vt 0.905785 0.444248
vt 0.905785 0.444248
vt 0.905785 0.444248
vt 0.905785 0.444248
vt 0.905785 0.444248
vt 0.905785 0.444248
vt 0.905785 0.444248
vt 0.905785 0.444247
vt 0.905785 0.444247
vt 0.905785 0.444248
vt 0.905785 0.444248
vt 0.905785 0.444247
vt 0.905785 0.444248
vt 0.905785 0.444248
vt 0.905785 0.444248
vt 0.905785 0.444248
vt 0.905785 0.444248
vt 0.905785 0.444248
vt 0.905785 0.444248
vt 0.905785 0.444248
vt 0.905785 0.444248
vt 0.905785 0.444248
vt 0.905785 0.444248
vt 0.905785 0.444248
vt 0.905785 0.444248
vt 0.905785 0.444248
vt 0.905785 0.444248
vt 0.905785 0.444248
vt 0.905785 0.444248
vt 0.905785 0.444248
vt 0.968227 0.757595
vt 0.968227 0.757595
vt 0.968227 0.757595
vt 0.968227 0.757595
vt 0.968227 0.757595
vt 0.968227 0.757595
vt 0.968227 0.757595
vt 0.968227 0.757595
vn -1.0000 0.0000 0.0000
vn 0.0000 -0.0000 -1.0000
vn 1.0000 0.0000 0.0000
vn 0.0000 0.0000 1.0000
vn 0.0000 1.0000 0.0000
vn 0.0000 -1.0000 -0.0000
vn 0.0000 0.8720 -0.4895
vn 0.0000 0.8720 0.4895
usemtl None
s off
f 1/1/1 3/2/1 4/3/1 2/4/1
f 3/2/2 7/5/2 8/6/2 4/3/2
f 7/5/3 5/7/3 6/8/3 8/6/3
f 5/7/4 1/1/4 2/4/4 6/8/4
f 3/2/5 1/1/5 5/7/5 7/5/5
f 8/6/6 6/8/6 2/4/6 4/3/6
f 9/9/4 11/10/4 12/11/4 10/12/4
f 27/13/1 15/14/1 16/15/1 25/16/1
f 15/14/2 13/17/2 14/18/2 16/15/2
f 24/19/3 9/9/3 10/12/3 22/20/3
f 27/13/5 26/21/5 13/17/5 15/14/5
f 23/22/6 22/20/6 10/12/6 12/11/6
f 25/16/6 28/23/6 20/24/6 18/25/6
f 21/26/7 24/19/7 19/27/7 17/28/7
f 26/21/3 19/27/3 20/24/3 28/23/3
f 21/26/1 17/28/1 18/25/1 23/22/1
f 11/10/1 21/26/1 23/22/1 12/11/1
f 11/10/5 9/9/5 24/19/5 21/26/5
f 18/25/6 20/24/6 22/20/6 23/22/6
f 19/27/3 24/19/3 22/20/3 20/24/3
f 13/17/3 26/21/3 28/23/3 14/18/3
f 16/15/6 14/18/6 28/23/6 25/16/6
f 17/28/8 19/27/8 26/21/8 27/13/8
f 17/28/1 27/13/1 25/16/1 18/25/1
f 29/29/1 31/30/1 32/31/1 30/32/1
f 31/30/2 35/33/2 36/34/2 32/31/2
f 35/33/3 33/35/3 34/36/3 36/34/3
f 33/35/4 29/29/4 30/32/4 34/36/4
f 31/30/5 29/29/5 33/35/5 35/33/5
f 36/34/6 34/36/6 30/32/6 32/31/6
f 37/37/1 39/38/1 40/39/1 38/40/1
f 39/38/2 43/41/2 44/42/2 40/39/2
f 43/41/3 41/43/3 42/44/3 44/42/3
f 41/43/4 37/37/4 38/40/4 42/44/4
f 39/38/5 37/37/5 41/43/5 43/41/5
f 44/42/6 42/44/6 38/40/6 40/39/6
