# Blender v2.79 (sub 0) OBJ File: 'Calles.blend'
# www.blender.org
mtllib Calles5.mtl
o Cube.003_Cube.787
v -2.861406 0.486960 2.861405
v -2.861406 -0.486960 2.861406
v -2.861406 0.486960 -2.861406
v -2.861406 -0.486960 -2.861405
v 2.861406 0.486960 2.861405
v 2.861406 -0.486960 2.861406
v 2.861406 0.486960 -2.861406
v 2.861406 -0.486960 -2.861405
v 2.914099 0.655981 2.895308
v 2.914099 -0.655980 2.895308
v 1.619922 0.655981 2.895308
v 1.619922 -0.655980 2.895308
v 2.914099 0.655981 -2.918546
v 2.914099 -0.655980 -2.918547
v 1.619922 0.655981 -2.918547
v 1.619922 -0.655980 -2.918547
v 1.619922 0.581555 -0.011620
v 1.619922 -0.655980 -0.011620
v 2.914099 0.581555 -0.011619
v 2.914099 -0.655980 -0.011619
v 1.619922 0.655981 0.034014
v 2.914099 -0.655980 0.034014
v 1.619922 -0.655980 0.034014
v 2.914099 0.655981 0.034014
v 1.619922 -0.655980 -0.057253
v 2.914099 0.655981 -0.057253
v 1.619922 0.655981 -0.057253
v 2.914099 -0.655980 -0.057253
v -2.906071 0.655980 2.924354
v -2.906071 -0.655981 2.924354
v -2.906071 0.655981 1.630177
v -2.906071 -0.655981 1.630177
v -1.601346 0.655980 2.924354
v -1.601346 -0.655981 2.924354
v -1.601346 0.655981 1.630177
v -1.601346 -0.655981 1.630177
v 1.632327 0.655981 -2.916262
v 1.632327 -0.655980 -2.916262
v 1.632327 0.655981 -1.622084
v 1.632327 -0.655980 -1.622085
v -2.895567 0.655981 -2.916264
v -2.895567 -0.655980 -2.916264
v -2.895567 0.655981 -1.622087
v -2.895567 -0.655980 -1.622087
v -1.274600 0.581555 -1.622086
v -1.274600 -0.655980 -1.622086
v -1.274600 0.581555 -2.916263
v -1.274600 -0.655980 -2.916263
v -1.228967 0.655981 -1.622086
v -1.228967 -0.655980 -2.916263
v -1.228967 -0.655980 -1.622086
v -1.228967 0.655981 -2.916263
v -1.320234 -0.655980 -1.622086
v -1.320234 0.655981 -2.916263
v -1.320234 0.655981 -1.622086
v -1.320234 -0.655980 -2.916263
vt 0.968881 0.762660
vt 0.968881 0.762660
vt 0.968881 0.762660
vt 0.968881 0.762660
vt 0.968880 0.762660
vt 0.968880 0.762660
vt 0.968880 0.762660
vt 0.968880 0.762660
vt 0.905927 0.445722
vt 0.905927 0.445722
vt 0.905927 0.445722
vt 0.905927 0.445722
vt 0.905927 0.445722
vt 0.905927 0.445722
vt 0.905927 0.445722
vt 0.905927 0.445722
vt 0.905927 0.445722
vt 0.905927 0.445722
vt 0.905927 0.445722
vt 0.905927 0.445722
vt 0.905927 0.445722
vt 0.905927 0.445722
vt 0.905927 0.445722
vt 0.905927 0.445722
vt 0.905927 0.445722
vt 0.905927 0.445722
vt 0.905927 0.445722
vt 0.905927 0.445722
vt 0.905927 0.445722
vt 0.905927 0.445722
vt 0.905927 0.445722
vt 0.905927 0.445722
vt 0.905927 0.445722
vt 0.905927 0.445722
vt 0.905927 0.445722
vt 0.905927 0.445722
vt 0.905927 0.445722
vt 0.905927 0.445722
vt 0.905927 0.445722
vt 0.905927 0.445722
vt 0.905927 0.445722
vt 0.905927 0.445722
vt 0.905927 0.445722
vt 0.905927 0.445722
vt 0.905927 0.445722
vt 0.905927 0.445722
vt 0.905927 0.445722
vt 0.905927 0.445722
vt 0.905927 0.445722
vt 0.905927 0.445722
vt 0.905927 0.445722
vt 0.905927 0.445722
vt 0.905927 0.445722
vt 0.905927 0.445722
vt 0.905927 0.445722
vt 0.905927 0.445722
vn -1.0000 0.0000 0.0000
vn 0.0000 -0.0000 -1.0000
vn 1.0000 0.0000 0.0000
vn 0.0000 0.0000 1.0000
vn 0.0000 1.0000 0.0000
vn 0.0000 -1.0000 0.0000
vn 0.0000 0.5227 -0.8525
vn -0.0000 0.5227 0.8525
vn -0.8525 0.5227 -0.0000
vn 0.8525 0.5227 0.0000
usemtl None
s off
f 1/1/1 3/2/1 4/3/1 2/4/1
f 3/2/2 7/5/2 8/6/2 4/3/2
f 7/5/3 5/7/3 6/8/3 8/6/3
f 5/7/4 1/1/4 2/4/4 6/8/4
f 3/2/5 1/1/5 5/7/5 7/5/5
f 8/6/6 6/8/6 2/4/6 4/3/6
f 9/9/4 11/10/4 12/11/4 10/12/4
f 27/13/1 15/14/1 16/15/1 25/16/1
f 15/14/2 13/17/2 14/18/2 16/15/2
f 24/19/3 9/9/3 10/12/3 22/20/3
f 27/13/5 26/21/5 13/17/5 15/14/5
f 23/22/6 22/20/6 10/12/6 12/11/6
f 25/16/6 28/23/6 20/24/6 18/25/6
f 21/26/7 24/19/7 19/27/7 17/28/7
f 26/21/3 19/27/3 20/24/3 28/23/3
f 21/26/1 17/28/1 18/25/1 23/22/1
f 11/10/1 21/26/1 23/22/1 12/11/1
f 11/10/5 9/9/5 24/19/5 21/26/5
f 18/25/6 20/24/6 22/20/6 23/22/6
f 19/27/3 24/19/3 22/20/3 20/24/3
f 13/17/3 26/21/3 28/23/3 14/18/3
f 16/15/6 14/18/6 28/23/6 25/16/6
f 17/28/8 19/27/8 26/21/8 27/13/8
f 17/28/1 27/13/1 25/16/1 18/25/1
f 29/29/1 31/30/1 32/31/1 30/32/1
f 31/30/2 35/33/2 36/34/2 32/31/2
f 35/33/3 33/35/3 34/36/3 36/34/3
f 33/35/4 29/29/4 30/32/4 34/36/4
f 31/30/5 29/29/5 33/35/5 35/33/5
f 36/34/6 34/36/6 30/32/6 32/31/6
f 37/37/3 39/38/3 40/39/3 38/40/3
f 55/41/4 43/42/4 44/43/4 53/44/4
f 43/42/1 41/45/1 42/46/1 44/43/1
f 52/47/2 37/37/2 38/40/2 50/48/2
f 55/41/5 54/49/5 41/45/5 43/42/5
f 51/50/6 50/48/6 38/40/6 40/39/6
f 53/44/6 56/51/6 48/52/6 46/53/6
f 49/54/9 52/47/9 47/55/9 45/56/9
f 54/49/2 47/55/2 48/52/2 56/51/2
f 49/54/4 45/56/4 46/53/4 51/50/4
f 39/38/4 49/54/4 51/50/4 40/39/4
f 39/38/5 37/37/5 52/47/5 49/54/5
f 46/53/6 48/52/6 50/48/6 51/50/6
f 47/55/2 52/47/2 50/48/2 48/52/2
f 41/45/2 54/49/2 56/51/2 42/46/2
f 44/43/6 42/46/6 56/51/6 53/44/6
f 45/56/10 47/55/10 54/49/10 55/41/10
f 45/56/4 55/41/4 53/44/4 46/53/4
