# Blender v2.79 (sub 0) OBJ File: 'Calles.blend'
# www.blender.org
mtllib Calles22.mtl
o Cube.006_Cube.790
v 1.507998 0.225796 -2.427014
v 1.507998 -0.225796 -2.427014
v 1.507998 0.225796 -1.132837
v 1.507998 -0.225796 -1.132837
v -3.019895 0.225796 -2.427015
v -3.019895 -0.225796 -2.427015
v -3.019896 0.225796 -1.132838
v -3.019896 -0.225796 -1.132838
v -1.398929 0.200177 -1.132837
v -1.398929 -0.225796 -1.132837
v -1.398929 0.200177 -2.427014
v -1.398929 -0.225796 -2.427014
v -1.353296 0.225796 -1.132837
v -1.353296 -0.225796 -2.427014
v -1.353296 -0.225796 -1.132837
v -1.353296 0.225796 -2.427014
v -1.444563 -0.225796 -1.132837
v -1.444563 0.225796 -2.427014
v -1.444563 0.225796 -1.132837
v -1.444563 -0.225796 -2.427014
v -2.985732 0.167617 3.350649
v -2.985732 -0.167617 3.350649
v -2.985732 0.167617 -2.372161
v -2.985732 -0.167617 -2.372161
v 2.737079 0.167617 3.350647
v 2.737079 -0.167617 3.350647
v 2.737079 0.167617 -2.372163
v 2.737079 -0.167617 -2.372163
v -3.030398 0.225796 3.413599
v -3.030398 -0.225795 3.413599
v -3.030398 0.225795 2.119422
v -3.030398 -0.225796 2.119423
v -1.725673 0.225796 3.413599
v -1.725673 -0.225795 3.413599
v -1.725673 0.225796 2.119422
v -1.725673 -0.225796 2.119422
v 2.789769 0.225796 3.384550
v 2.789769 -0.225795 3.384551
v 1.495592 0.225796 3.384551
v 1.495592 -0.225795 3.384551
v 2.789769 0.225796 -2.429303
v 2.789769 -0.225795 -2.429303
v 1.495593 0.225796 -2.429303
v 1.495593 -0.225795 -2.429302
v 1.495592 0.200177 0.477624
v 1.495592 -0.225795 0.477624
v 2.789769 0.200177 0.477624
v 2.789769 -0.225795 0.477624
v 1.495592 0.225796 0.523258
v 2.789769 -0.225795 0.523257
v 1.495592 -0.225795 0.523258
v 2.789769 0.225796 0.523257
v 1.495593 -0.225795 0.431991
v 2.789769 0.225796 0.431990
v 1.495593 0.225796 0.431991
v 2.789769 -0.225795 0.431990
vt 0.907380 0.445366
vt 0.907380 0.445366
vt 0.907380 0.445366
vt 0.907380 0.445366
vt 0.907380 0.445366
vt 0.907380 0.445366
vt 0.907380 0.445366
vt 0.907380 0.445366
vt 0.907380 0.445365
vt 0.907380 0.445366
vt 0.907380 0.445366
vt 0.907380 0.445367
vt 0.907380 0.445365
vt 0.907379 0.445366
vt 0.907379 0.445366
vt 0.907379 0.445366
vt 0.907379 0.445366
vt 0.907380 0.445365
vt 0.907380 0.445365
vt 0.907380 0.445365
vt 0.968955 0.754493
vt 0.968955 0.754493
vt 0.968956 0.754493
vt 0.968956 0.754493
vt 0.968955 0.754493
vt 0.968955 0.754493
vt 0.968955 0.754493
vt 0.968955 0.754493
vt 0.907380 0.445367
vt 0.907380 0.445367
vt 0.907380 0.445366
vt 0.907380 0.445366
vt 0.907379 0.445366
vt 0.907379 0.445367
vt 0.907380 0.445365
vt 0.907380 0.445366
vt 0.907380 0.445366
vt 0.907379 0.445366
vt 0.907379 0.445366
vt 0.907380 0.445366
vt 0.907380 0.445366
vt 0.907380 0.445367
vt 0.907381 0.445367
vt 0.907381 0.445366
vt 0.907379 0.445366
vt 0.907379 0.445366
vt 0.907380 0.445366
vt 0.907380 0.445366
vt 0.907380 0.445365
vt 0.907380 0.445366
vt 0.907380 0.445366
vt 0.907380 0.445366
vt 0.907380 0.445366
vt 0.907380 0.445365
vt 0.907380 0.445365
vt 0.907380 0.445365
vn 1.0000 -0.0000 0.0000
vn -0.0000 0.0000 1.0000
vn -1.0000 0.0000 -0.0000
vn 0.0000 -0.0000 -1.0000
vn -0.0000 1.0000 0.0000
vn 0.0000 -1.0000 -0.0000
vn -0.4895 0.8720 -0.0000
vn 0.4895 0.8720 0.0000
vn -0.0000 0.8720 -0.4895
vn 0.0000 0.8720 0.4895
usemtl None
s off
f 1/1/1 3/2/1 4/3/1 2/4/1
f 19/5/2 7/6/2 8/7/2 17/8/2
f 7/6/3 5/9/3 6/10/3 8/7/3
f 16/11/4 1/1/4 2/4/4 14/12/4
f 19/5/5 18/13/5 5/9/5 7/6/5
f 15/14/6 14/12/6 2/4/6 4/3/6
f 17/8/6 20/15/6 12/16/6 10/17/6
f 13/18/7 16/11/7 11/19/7 9/20/7
f 18/13/4 11/19/4 12/16/4 20/15/4
f 13/18/2 9/20/2 10/17/2 15/14/2
f 3/2/2 13/18/2 15/14/2 4/3/2
f 3/2/5 1/1/5 16/11/5 13/18/5
f 10/17/6 12/16/6 14/12/6 15/14/6
f 11/19/4 16/11/4 14/12/4 12/16/4
f 5/9/4 18/13/4 20/15/4 6/10/4
f 8/7/6 6/10/6 20/15/6 17/8/6
f 9/20/8 11/19/8 18/13/8 19/5/8
f 9/20/2 19/5/2 17/8/2 10/17/2
f 21/21/3 23/22/3 24/23/3 22/24/3
f 23/22/4 27/25/4 28/26/4 24/23/4
f 27/25/1 25/27/1 26/28/1 28/26/1
f 25/27/2 21/21/2 22/24/2 26/28/2
f 23/22/5 21/21/5 25/27/5 27/25/5
f 28/26/6 26/28/6 22/24/6 24/23/6
f 29/29/3 31/30/3 32/31/3 30/32/3
f 31/30/4 35/33/4 36/34/4 32/31/4
f 35/33/1 33/35/1 34/36/1 36/34/1
f 33/35/2 29/29/2 30/32/2 34/36/2
f 31/30/5 29/29/5 33/35/5 35/33/5
f 36/34/6 34/36/6 30/32/6 32/31/6
f 37/37/2 39/38/2 40/39/2 38/40/2
f 55/41/3 43/42/3 44/43/3 53/44/3
f 43/42/4 41/45/4 42/46/4 44/43/4
f 52/47/1 37/37/1 38/40/1 50/48/1
f 55/41/5 54/49/5 41/45/5 43/42/5
f 51/50/6 50/48/6 38/40/6 40/39/6
f 53/44/6 56/51/6 48/52/6 46/53/6
f 49/54/9 52/47/9 47/55/9 45/56/9
f 54/49/1 47/55/1 48/52/1 56/51/1
f 49/54/3 45/56/3 46/53/3 51/50/3
f 39/38/3 49/54/3 51/50/3 40/39/3
f 39/38/5 37/37/5 52/47/5 49/54/5
f 46/53/6 48/52/6 50/48/6 51/50/6
f 47/55/1 52/47/1 50/48/1 48/52/1
f 41/45/1 54/49/1 56/51/1 42/46/1
f 44/43/6 42/46/6 56/51/6 53/44/6
f 45/56/10 47/55/10 54/49/10 55/41/10
f 45/56/3 55/41/3 53/44/3 46/53/3
